PathFileType	4	(X/Y/Z)	C:/Users/opensim2020/Desktop/walking_exp_matlab/subject01_walking07_straight_04.trc	
DataRate	CameraRate	NumFrames	NumMarkers	Units	OrigDataRate	OrigDataStartFrame	OrigNumFrames	
100.00	100.00	4	43	mm	100.00	2900	176	
Frame#	Time	LFHD			RFHD			LBHD			RBHD			C7			T10			CLAV			STRN			RBAK			LSHO			LUPA			LELB			LFRM			LWRA			LWRB			LFIN			RSHO			RUPA			RELB			RFRM			RWRA			RWRB			RFIN			LASI			RASI			LPSI			RPSI			LTHI			LKNE			LTIB			LANK			LHEE			LTOE			RTHI			RKNE			RTIB			RANK			RHEE			RTOE			*39			*40			*41			*42			
		X1	Y1	Z1	X2	Y2	Z2	X3	Y3	Z3	X4	Y4	Z4	X5	Y5	Z5	X6	Y6	Z6	X7	Y7	Z7	X8	Y8	Z8	X9	Y9	Z9	X10	Y10	Z10	X11	Y11	Z11	X12	Y12	Z12	X13	Y13	Z13	X14	Y14	Z14	X15	Y15	Z15	X16	Y16	Z16	X17	Y17	Z17	X18	Y18	Z18	X19	Y19	Z19	X20	Y20	Z20	X21	Y21	Z21	X22	Y22	Z22	X23	Y23	Z23	X24	Y24	Z24	X25	Y25	Z25	X26	Y26	Z26	X27	Y27	Z27	X28	Y28	Z28	X29	Y29	Z29	X30	Y30	Z30	X31	Y31	Z31	X32	Y32	Z32	X33	Y33	Z33	X34	Y34	Z34	X35	Y35	Z35	X36	Y36	Z36	X37	Y37	Z37	X38	Y38	Z38	X39	Y39	Z39	X40	Y40	Z40	X41	Y41	Z41	X42	Y42	Z42	X43	Y43	Z43	

133	1.320	-973.63599	-415.88922	1654.17041	-1078.96265	-463.30338	1657.79114	-1019.63287	-302.52133	1621.33813	-1130.64929	-349.89346	1625.81812	-1046.74377	-260.93991	1423.44360	-1054.81067	-218.75601	1131.12476	-1048.65259	-403.14536	1352.19922	-1043.06458	-442.67398	1197.15613	-1120.14453	-201.17525	1230.02905	-887.53711	-349.04471	1385.31592	-793.46527	-357.64984	1205.69849	-781.52081	-387.32462	1055.75684	-757.34094	-477.05728	982.76556	-775.86206	-604.56555	930.23718	-752.35101	-562.48462	895.12195	-740.11169	-640.80157	866.95288	-1200.27588	-339.34320	1383.00244	-1289.58350	-249.93625	1189.34204	-1288.27661	-233.76373	1067.17737	-1320.67639	-231.57803	948.47687	-1311.19897	-285.63025	815.47015	-1344.79590	-238.74965	827.94354	-1342.29443	-254.04504	741.14752	-942.12952	-382.91956	922.41492	-1159.66003	-394.99442	927.65735	-1009.68805	-200.60104	935.92114	-1154.26135	-210.66719	934.57336	-898.03613	-298.88263	594.01642	-915.42603	-260.96469	461.77762	-911.37158	-176.28831	291.34198	-970.02979	-110.86585	82.35509	-1023.07178	-62.41248	60.02237	-962.27960	-252.36920	32.52367	-1237.57397	-427.61862	604.42834	-1210.93384	-500.68671	464.93927	-1231.85449	-500.04483	292.59268	-1198.80261	-540.91199	85.41595	-1150.44775	-505.48697	32.48331	-1197.78455	-684.56561	81.24298	-1059.11499	-448.29962	1692.41443	-3101.93140	1973.13855	1023.35718	-3140.77930	2012.59656	1022.11920			 
134	1.330	-974.93561	-425.37830	1653.22131	-1080.20422	-472.98584	1656.73340	-1021.10834	-312.05630	1620.35120	-1131.98730	-359.64658	1624.68665	-1047.82141	-270.53873	1422.38916	-1055.91138	-228.58455	1129.95581	-1049.71472	-412.74677	1351.20227	-1043.82910	-452.35626	1196.23401	-1121.12390	-210.84657	1228.76721	-888.62317	-358.46317	1384.49377	-794.39923	-367.46170	1205.01953	-782.19476	-397.50827	1055.05676	-758.05176	-488.15689	983.07294	-776.28040	-616.16095	931.86938	-752.92517	-574.38861	896.22339	-740.44110	-653.12097	868.88916	-1201.47058	-348.83722	1381.80615	-1290.09973	-258.60742	1188.30200	-1288.58972	-241.93082	1066.22754	-1320.78125	-239.18393	947.51575	-1311.32947	-292.84601	814.35687	-1344.77734	-245.78040	827.00720	-1341.97327	-260.85397	739.93036	-942.40186	-392.57071	921.53552	-1159.85767	-405.48215	926.37311	-1011.06317	-210.38034	935.01953	-1155.38208	-221.34367	933.45642	-898.02063	-304.98685	593.86945	-915.46503	-265.94632	461.81946	-911.42975	-179.31293	292.30029	-969.84033	-111.51846	84.13038	-1022.89844	-62.93331	62.14386	-962.20966	-252.43622	32.50436	-1239.37781	-434.80832	602.49396	-1210.83276	-509.99246	464.44568	-1232.36328	-515.40375	292.41562	-1199.08276	-562.12610	86.13973	-1151.13647	-527.65326	32.15948	-1195.45959	-706.23065	85.86776	-1060.43982	-457.93634	1691.33838	-3101.96802	1973.06995	1023.89197	-3140.78931	2012.58496	1022.05817			 
135	1.340	-976.22656	-434.84189	1652.38464	-1081.41235	-482.68515	1655.69910	-1022.64008	-321.67300	1619.40039	-1133.48206	-369.46136	1623.60339	-1049.58679	-279.89175	1421.39197	-1057.08691	-238.48726	1128.77368	-1050.85791	-422.35510	1350.22729	-1044.69629	-462.11359	1195.29858	-1122.18738	-220.62964	1227.46912	-889.78516	-368.16721	1383.62256	-795.50507	-377.18115	1204.28564	-783.15430	-407.82281	1054.44519	-758.82874	-498.82852	983.18176	-776.77289	-627.29547	933.10846	-753.62244	-585.74982	897.04584	-740.96674	-664.69843	870.49384	-1202.70642	-358.42422	1380.61060	-1290.77344	-267.46783	1187.25525	-1289.13245	-250.34164	1065.29773	-1321.06592	-247.15100	946.44708	-1311.18835	-299.94580	812.98236	-1344.45056	-253.04602	825.71307	-1342.12964	-268.02667	739.03491	-942.61743	-402.15866	920.45013	-1160.12451	-416.12601	925.04730	-1012.33331	-220.26974	934.11273	-1156.80652	-231.80836	932.48792	-898.12140	-311.52716	593.75793	-915.54370	-271.32437	461.93274	-911.59656	-182.89987	293.38159	-969.66583	-112.49060	85.87589	-1022.75525	-63.55227	64.59755	-962.12616	-252.53682	32.48235	-1240.48840	-443.22308	601.03925	-1210.97156	-519.21387	463.85074	-1232.45581	-529.31445	292.06119	-1199.02454	-581.18732	86.79864	-1151.67773	-547.46338	31.86046	-1193.09131	-725.54688	89.70865	-1061.78101	-467.66275	1690.42664	-3101.83057	1973.20789	1023.44244	-3140.80322	2012.52551	1021.99908			 
136	1.350	-978.06085	-444.19281	1651.18420	-1082.69299	-492.39590	1654.69971	-1024.40051	-331.27063	1618.50793	-1135.02051	-379.34186	1622.52283	-1050.92529	-289.45822	1420.38074	-1058.38916	-248.43806	1127.62354	-1052.09839	-432.07721	1349.28357	-1045.70764	-471.93118	1194.43933	-1123.27917	-230.44310	1226.15771	-891.06830	-377.61566	1382.90417	-796.77783	-386.69354	1203.55054	-784.63287	-417.76715	1053.73071	-759.89648	-509.50677	983.01910	-777.29388	-638.09430	934.02917	-754.32483	-596.80212	897.63062	-741.46863	-675.92584	871.65295	-1203.98486	-367.99445	1379.46985	-1291.69470	-276.30545	1186.13062	-1289.76660	-259.06027	1064.25964	-1321.45605	-255.39569	945.33783	-1311.36328	-307.67145	811.60132	-1344.91724	-260.81671	824.70697	-1342.02209	-275.41544	737.61627	-943.17120	-412.21884	919.58929	-1160.49548	-426.82788	923.80664	-1013.68970	-230.25565	933.21832	-1158.16626	-242.33910	931.47772	-898.34796	-318.44418	593.65955	-915.72430	-277.26846	462.11240	-911.69006	-186.74245	294.52933	-969.26855	-113.42824	87.70631	-1022.45026	-64.27379	67.23626	-962.10706	-252.42494	32.68354	-1241.53870	-453.32666	600.14496	-1211.00464	-528.64313	462.99069	-1232.26257	-541.85895	291.37903	-1198.64136	-597.87750	86.99145	-1151.65857	-564.78766	31.48084	-1190.62488	-742.64453	92.27235	-1063.13354	-477.31827	1689.33618	-3101.99243	1973.11218	1023.35376	-3140.69678	2012.52661	1022.05310			 
